#!OML:ASF F:\VICON\USERDATA\INSTALL\rory3\rory3.ASF
:FULLY-SPECIFIED
:DEGREES
77
root 0.506319 17.8678 -13.8203 -2.60283 -5.03085 -0.549304
lowerback 11.0458 2.29706 -0.0915184
upperback 0.12199 3.07835 0.580087
thorax -6.10534 1.52128 0.163131
lowerneck -15.9395 -3.54645 -1.13341
upperneck 21.6213 -4.82876 0.704927
head 9.50483 -2.26064 -0.185547
rclavicle -6.55989e-015 -4.37326e-015
rhumerus -25.5123 -11.2189 -81.6824
rradius 30.8514
rwrist 1.14899
rhand -18.9397 23.29
rfingers 7.12502
rthumb 7.36337 -6.56189
lclavicle -6.55989e-015 -4.37326e-015
lhumerus -37.5258 8.79801 79.7328
lradius 18.8957
lwrist 0.592159
lhand -27.3248 21.508
lfingers 7.12502
lthumb -0.733793 51.4865
rfemur -5.06602 0.76352 24.1069
rtibia 64.7263
rfoot 20.7243 -2.23013
rtoes 11.6144
lfemur -20.061 -0.0454358 -23.6673
ltibia 30.3535
lfoot -6.45502 -5.72124
ltoes 7.42694
78
root 0.508484 17.8869 -13.6346 -2.73275 -5.01328 -0.246853
lowerback 11.1821 2.2329 -0.39861
upperback 0.156189 2.94854 0.50737
thorax -6.15663 1.46513 0.275537
lowerneck -15.9473 -3.50765 -1.2229
upperneck 21.519 -4.77232 0.801481
head 9.47498 -2.23171 -0.129398
rclavicle -9.59136e-015 -5.26779e-015
rhumerus -25.5546 -11.0395 -81.7776
rradius 30.3976
rwrist 1.61246
rhand -19.0271 23.1511
rfingers 7.12502
rthumb 7.27901 -6.70365
lclavicle -9.59136e-015 -5.26779e-015
lhumerus -37.2967 8.32348 79.9903
lradius 19.1519
lwrist 1.37212
lhand -27.5942 20.7681
lfingers 7.12502
lthumb -0.994014 50.7455
rfemur -6.58287 0.473005 23.6596
rtibia 66.9177
rfoot 20.1483 -3.38646
rtoes 13.5168
lfemur -19.1762 -0.194211 -24.0973
ltibia 30.4848
lfoot -7.3122 -5.59229
ltoes 8.6469
79
root 0.511754 17.8881 -13.4461 -2.92753 -5.00086 0.117298
lowerback 11.232 2.21165 -0.754775
upperback 0.275481 2.86689 0.406247
thorax -6.07 1.43369 0.38375
lowerneck -16.0227 -3.4951 -1.10994
upperneck 21.3676 -4.76526 0.73836
head 9.43111 -2.2272 -0.168559
rclavicle 3.57191e-015 2.5842e-015
rhumerus -25.4745 -11.1334 -81.7784
rradius 29.8237
rwrist 2.10176
rhand -18.9929 23.2355
rfingers 7.12502
rthumb 7.31198 -6.61812
lclavicle 3.57191e-015 2.5842e-015
lhumerus -36.951 7.71238 80.295
lradius 19.5377
lwrist 1.95813
lhand -27.341 20.9336
lfingers 7.12502
lthumb -0.749444 50.912
rfemur -7.99739 0.118968 23.1448
rtibia 68.9901
rfoot 18.3365 -3.91163
rtoes 17.6905
lfemur -18.156 -0.126272 -24.6368
ltibia 30.5464
lfoot -8.25903 -5.34899
ltoes 6.21625
80
root 0.513203 17.876 -13.2663 -3.05429 -4.69199 0.330903
lowerback 11.4163 2.08102 -0.959743
upperback 0.286879 2.66145 0.352032
thorax -6.16501 1.33774 0.469293
lowerneck -16.0906 -3.47763 -1.09951
upperneck 21.3079 -4.74868 0.766531
head 9.42316 -2.21555 -0.159153
rclavicle -2.13507e-014 -1.58034e-014
rhumerus -25.5439 -11.429 -81.6989
rradius 29.1519
rwrist 2.75736
rhand -19.4292 23.4771
rfingers 7.12502
rthumb 6.89083 -6.39079
lclavicle -2.13507e-014 -1.58034e-014
lhumerus -36.7006 7.16552 80.5157
lradius 19.8837
lwrist 2.33165
lhand -27.2835 21.9183
lfingers 7.12502
lthumb -0.69388 51.8969
rfemur -9.47228 -0.526191 22.8285
rtibia 70.9127
rfoot 13.4457 -4.62257
rtoes 22.381
lfemur -17.5676 -0.423087 -24.9488
ltibia 30.6414
lfoot -8.79751 -5.3
ltoes 5.34275
81
root 0.515363 17.8854 -13.0863 -3.07073 -4.30572 0.424116
lowerback 11.4416 1.87964 -1.06169
upperback 0.245875 2.38115 0.365658
thorax -6.22209 1.2038 0.586075
lowerneck -15.9592 -3.42435 -1.0802
upperneck 21.2305 -4.66477 0.705668
head 9.36876 -2.18365 -0.169075
rclavicle -2.6047e-014 -8.34896e-015
rhumerus -25.7684 -11.3975 -81.5946
rradius 28.6575
rwrist 3.30036
rhand -19.884 23.1488
rfingers 7.12502
rthumb 6.45185 -6.7329
lclavicle -2.6047e-014 -8.34896e-015
lhumerus -36.5645 7.13103 80.5024
lradius 20.1076
lwrist 2.51162
lhand -27.3551 22.443
lfingers 7.12502
lthumb -0.763052 52.4214
rfemur -10.9945 -1.17487 22.6761
rtibia 72.5815
rfoot 14.8677 -4.30424
rtoes 17.4765
lfemur -17.1172 -1.22722 -24.9948
ltibia 30.4045
lfoot -8.46171 -5.41044
ltoes 11.4269
82
root 0.513152 17.8993 -12.9064 -3.18394 -4.40307 0.478969
lowerback 11.4577 1.88083 -1.11936
upperback 0.242713 2.37179 0.316933
thorax -6.23452 1.20018 0.56837
lowerneck -15.7471 -3.39554 -0.976991
upperneck 21.2753 -4.65828 0.719475
head 9.34274 -2.17209 -0.176951
rclavicle -2.04686e-015 1.26228e-014
rhumerus -26.1696 -11.7321 -81.5472
rradius 28.4518
rwrist 3.73032
rhand -19.5474 23.1302
rfingers 7.12502
rthumb 6.77671 -6.74134
lclavicle -2.04686e-015 1.26228e-014
lhumerus -36.5273 6.68878 80.5209
lradius 20.6
lwrist 2.76133
lhand -27.7621 22.3975
lfingers 7.12502
lthumb -1.15611 52.3741
rfemur -12.4012 -1.29981 22.6304
rtibia 74.0244
rfoot 12.6143 -4.39194
rtoes 14.5417
lfemur -16.1008 -1.04594 -25.1654
ltibia 30.2482
lfoot -9.19043 -4.8748
ltoes 9.50959
83
root 0.516285 17.9088 -12.7251 -3.29342 -4.69235 0.621623
lowerback 11.41 1.95449 -1.17625
upperback 0.257353 2.45626 0.215086
thorax -6.19186 1.24162 0.481233
lowerneck -15.4384 -3.36061 -0.98963
upperneck 21.2655 -4.65066 0.894043
head 9.28718 -2.15252 -0.108253
rclavicle 1.55301e-017 6.36111e-015
rhumerus -26.4888 -12.3961 -81.4164
rradius 27.9987
rwrist 4.50756
rhand -19.4149 23.386
rfingers 7.12502
rthumb 6.90463 -6.48139
lclavicle 1.55301e-017 6.36111e-015
lhumerus -36.2705 6.45522 80.4323
lradius 20.8019
lwrist 2.59913
lhand -28.1571 21.8878
lfingers 7.12502
lthumb -1.53765 51.862
rfemur -13.7512 -1.23065 22.4205
rtibia 75.2936
rfoot 9.88067 -4.69471
rtoes 11.4169
lfemur -15.3478 -1.08808 -25.31
ltibia 29.9769
lfoot -9.04852 -4.70643
ltoes 13.7605
84
root 0.521816 17.9072 -12.5469 -3.35155 -4.93381 0.643797
lowerback 11.2751 1.96765 -1.14164
upperback 0.311135 2.48082 0.227187
thorax -6.05878 1.25258 0.476183
lowerneck -15.3652 -3.28498 -1.09676
upperneck 21.4252 -4.53844 0.961366
head 9.33263 -2.10057 -0.0537156
rclavicle 1.49461e-014 -1.22253e-014
rhumerus -26.6291 -13.0275 -81.1724
rradius 27.5019
rwrist 5.326
rhand -19.5166 23.4811
rfingers 7.12502
rthumb 6.80649 -6.38945
lclavicle 1.49461e-014 -1.22253e-014
lhumerus -35.91 6.66303 80.2857
lradius 20.8416
lwrist 2.01752
lhand -28.4379 21.9551
lfingers 7.12502
lthumb -1.80882 51.9272
rfemur -15.1247 -1.05954 22.3511
rtibia 76.4131
rfoot 7.45129 -4.99358
rtoes 11.5667
lfemur -14.4379 -0.548228 -25.5564
ltibia 30.2448
lfoot -10.38 -3.90244
ltoes 5.84001
